<svg xmlns="http://www.w3.org/2000/svg" xmlns:xlink="http://www.w3.org/1999/xlink" version="1.1" x="0px" y="0px" viewBox="0 0 100 100" style="enable-background:new 0 0 100 100;" xml:space="preserve"><g><path d="M50,81.3c-1.1,0-2.2-0.3-3.3-0.8L21.6,68v7.6c0,0.1,0,0.4,0.3,0.5L47.6,89c1.5,0.7,3.2,0.7,4.7,0l25.7-12.9   c0.3-0.1,0.3-0.4,0.3-0.5V68L53.3,80.6C52.2,81.1,51.1,81.3,50,81.3z"></path><path d="M78.1,64.9L56.9,54.3v8.8c0,2.6-3,4.6-6.9,4.6c-3.8,0-6.9-2-6.9-4.6v-8.8L21.9,64.9c-0.3,0.1-0.3,0.4-0.3,0.5   s0,0.4,0.3,0.5l25.7,12.9c1.5,0.7,3.2,0.7,4.7,0l25.7-12.9c0.3-0.1,0.3-0.4,0.3-0.5S78.4,65,78.1,64.9z"></path><path d="M45.1,36.3v26.8c0,1.2,2,2.6,4.9,2.6c2.9,0,4.9-1.4,4.9-2.6V36.3c-1.5,0.6-3.2,0.9-4.9,0.9C48.3,37.1,46.7,36.8,45.1,36.3z   "></path><path d="M62.3,22.8c0-6.8-5.5-12.3-12.3-12.3S37.7,16,37.7,22.8c0,6.8,5.5,12.3,12.3,12.3S62.3,29.6,62.3,22.8z M45.6,22   c-2.1,0-3.7-1.7-3.7-3.7s1.7-3.7,3.7-3.7s3.7,1.7,3.7,3.7S47.7,22,45.6,22z"></path></g></svg>