<svg xmlns="http://www.w3.org/2000/svg" xmlns:xlink="http://www.w3.org/1999/xlink" version="1.1" x="0px" y="0px" viewBox="0 0 100 100" enable-background="new 0 0 100 100" xml:space="preserve"><g><path d="M41.523,19.54h-13.28c-2.371,0-4.291,1.92-4.291,4.291v52.338c0,2.371,1.92,4.291,4.291,4.291h13.28   c2.368,0,4.29-1.92,4.29-4.291V23.831C45.813,21.46,43.892,19.54,41.523,19.54z"></path><path d="M71.759,19.54H58.478c-2.37,0-4.291,1.92-4.291,4.291v52.338c0,2.371,1.921,4.291,4.291,4.291h13.281   c2.369,0,4.289-1.92,4.289-4.291V23.831C76.048,21.46,74.128,19.54,71.759,19.54z"></path></g></svg>