<svg xmlns="http://www.w3.org/2000/svg" xmlns:xlink="http://www.w3.org/1999/xlink" version="1.1" x="0px" y="0px" viewBox="0 0 52 52" style="enable-background:new 0 0 52 52;" xml:space="preserve"><path d="M49.9,22.8C48.1,9.8,36.5,0.7,23.3,2.2C12.3,3.4,3.4,12.3,2.2,23.3c-0.7,6.6,1.2,13,5.4,18c2.1,2.5,4.6,4.5,7.5,6  c2.8,1.5,6,2.4,9.2,2.6c0.3,0,0.5,0,0.8,0c1.3,0,2.5-0.3,3.5-0.7c1.5-0.7,2.5-1.8,2.8-3c0.4-1.9-0.7-3.8-1.7-5.1  c-0.6-0.7-0.8-1.6-0.5-2.3c1-3.3,7-1.5,7-1.5l0.2,0c7.6,0.8,11.1-3.2,12.6-6.7C49.9,28.4,50.2,25.7,49.9,22.8z M15,38  c-2.2,0-4-1.8-4-4c0-2.2,1.8-4,4-4c2.2,0,4,1.8,4,4C19,36.2,17.2,38,15,38z M15,24c-2.2,0-4-1.8-4-4c0-2.2,1.8-4,4-4  c2.2,0,4,1.8,4,4C19,22.2,17.2,24,15,24z M26,15c-2.2,0-4-1.8-4-4c0-2.2,1.8-4,4-4c2.2,0,4,1.8,4,4C30,13.2,28.2,15,26,15z M37,24  c-2.2,0-4-1.8-4-4c0-2.2,1.8-4,4-4c2.2,0,4,1.8,4,4C41,22.2,39.2,24,37,24z"></path></svg>