<svg xmlns="http://www.w3.org/2000/svg" xmlns:xlink="http://www.w3.org/1999/xlink" version="1.1" x="0px" y="0px" viewBox="0 0 100 100" enable-background="new 0 0 100 100" xml:space="preserve"><g><path d="M74.554,11.415h-14.03c-2.324,0-4.21,1.884-4.21,4.209s1.886,4.209,4.21,4.209h14.03c3.1,0,5.612,2.513,5.612,5.612v14.031   c0,2.325,1.886,4.209,4.21,4.209c2.323,0,4.209-1.884,4.209-4.209V25.446C88.585,17.698,82.304,11.415,74.554,11.415z"></path><path d="M39.477,11.415H25.446c-7.75,0-14.031,6.283-14.031,14.031v14.031c0,2.325,1.884,4.209,4.209,4.209   s4.209-1.884,4.209-4.209V25.446c0-3.1,2.513-5.612,5.612-5.612h14.031c2.325,0,4.209-1.884,4.209-4.209   S41.802,11.415,39.477,11.415z"></path><path d="M84.376,56.313c-2.324,0-4.21,1.885-4.21,4.21v14.03c0,3.1-2.513,5.612-5.612,5.612h-14.03c-2.324,0-4.21,1.884-4.21,4.21   c0,2.325,1.886,4.209,4.21,4.209h14.03c7.75,0,14.031-6.284,14.031-14.031v-14.03C88.585,58.198,86.699,56.313,84.376,56.313z"></path><path d="M39.477,80.166H25.446c-3.1,0-5.612-2.513-5.612-5.612v-14.03c0-2.325-1.884-4.21-4.209-4.21s-4.209,1.885-4.209,4.21   v14.03c0,7.747,6.282,14.031,14.031,14.031h14.031c2.325,0,4.209-1.884,4.209-4.209C43.686,82.05,41.802,80.166,39.477,80.166z"></path></g></svg>