<svg xmlns="http://www.w3.org/2000/svg" xmlns:xlink="http://www.w3.org/1999/xlink" version="1.1" x="0px" y="0px" viewBox="0 0 100 100" enable-background="new 0 0 100 100" xml:space="preserve"><path d="M92.5,90.646c0-0.66-0.271-1.3-0.73-1.77c-0.92-0.92-2.609-0.93-3.54,0c-0.46,0.47-0.729,1.11-0.729,1.77  c0,0.66,0.27,1.3,0.729,1.77c0.471,0.46,1.11,0.73,1.771,0.73s1.3-0.27,1.77-0.73C92.229,91.945,92.5,91.305,92.5,90.646z"></path><circle cx="55.71" cy="90.646" r="2.5"></circle><circle cx="32.859" cy="90.646" r="2.5"></circle><circle cx="78.569" cy="90.646" r="2.5"></circle><path d="M44.29,93.146c1.37,0,2.49-1.12,2.49-2.5c0-1.38-1.12-2.5-2.49-2.5c-1.391,0-2.5,1.12-2.5,2.5  C41.79,92.025,42.899,93.146,44.29,93.146z"></path><circle cx="21.43" cy="90.646" r="2.5"></circle><circle cx="67.14" cy="90.646" r="2.5"></circle><path d="M12.5,90.646c0-0.66-0.271-1.3-0.73-1.77c-0.93-0.93-2.609-0.93-3.54,0c-0.46,0.47-0.729,1.11-0.729,1.77  c0,0.66,0.27,1.3,0.729,1.77c0.471,0.46,1.11,0.73,1.771,0.73s1.3-0.27,1.77-0.73C12.229,91.945,12.5,91.305,12.5,90.646z"></path><circle cx="10" cy="56.355" r="2.5"></circle><circle cx="10" cy="79.215" r="2.5"></circle><circle cx="10" cy="33.505" r="2.5"></circle><path d="M10,42.436c-1.38,0-2.5,1.11-2.5,2.5c0,1.38,1.12,2.5,2.5,2.5s2.5-1.12,2.5-2.5C12.5,43.545,11.38,42.436,10,42.436z"></path><circle cx="10" cy="22.075" r="2.5"></circle><circle cx="10" cy="67.785" r="2.5"></circle><path d="M11.77,8.875c-0.93-0.93-2.609-0.93-3.54,0C7.77,9.345,7.5,9.985,7.5,10.646c0,0.66,0.27,1.3,0.729,1.77  c0.471,0.46,1.11,0.73,1.771,0.73s1.3-0.27,1.77-0.73c0.46-0.47,0.73-1.11,0.73-1.77C12.5,9.985,12.229,9.345,11.77,8.875z"></path><circle cx="78.569" cy="10.646" r="2.5"></circle><circle cx="67.14" cy="10.646" r="2.5"></circle><circle cx="55.71" cy="10.646" r="2.5"></circle><path d="M44.29,13.146c1.37,0,2.49-1.12,2.49-2.5c0-1.38-1.12-2.5-2.49-2.5c-1.391,0-2.5,1.12-2.5,2.5  C41.79,12.025,42.899,13.146,44.29,13.146z"></path><circle cx="21.43" cy="10.646" r="2.5"></circle><circle cx="32.859" cy="10.646" r="2.5"></circle><path d="M91.77,8.875c-0.93-0.93-2.609-0.93-3.54,0c-0.46,0.47-0.729,1.11-0.729,1.77c0,0.66,0.27,1.3,0.729,1.77  c0.471,0.46,1.11,0.73,1.771,0.73s1.3-0.27,1.77-0.73c0.46-0.47,0.73-1.11,0.73-1.77C92.5,9.985,92.229,9.345,91.77,8.875z"></path><circle cx="90" cy="22.075" r="2.5"></circle><circle cx="90" cy="56.355" r="2.5"></circle><circle cx="90" cy="33.505" r="2.5"></circle><circle cx="90" cy="79.215" r="2.5"></circle><circle cx="90" cy="44.936" r="2.5"></circle><circle cx="90" cy="67.785" r="2.5"></circle></svg>