<svg xmlns="http://www.w3.org/2000/svg" xmlns:xlink="http://www.w3.org/1999/xlink" version="1.1" x="0px" y="0px" viewBox="0 0 100 100" style="enable-background:new 0 0 100 100;" xml:space="preserve"><style type="text/css">
	.st0{fill:none;stroke:#000000;stroke-width:3;stroke-miterlimit:10;}
</style><g><g><path d="M50,86.5c-9.7,0-18.9-3.8-25.8-10.7S13.5,59.7,13.5,50s3.8-18.9,10.7-25.8c6.9-6.9,16.1-10.7,25.8-10.7c0,0,0,0,0,0v3    c0,0,0,0,0,0c-8.9,0-17.4,3.5-23.7,9.8C20,32.6,16.5,41,16.5,50s3.5,17.4,9.8,23.7S41,83.5,50,83.5V86.5z"></path></g><g><rect x="21.9" y="27.9" width="28.1" height="3"></rect></g><g><rect x="15.3" y="41.3" width="34.7" height="3"></rect></g><g><rect x="15.3" y="54.6" width="34.7" height="3"></rect></g><g><rect x="20.8" y="67.9" width="29.2" height="3"></rect></g><g><path d="M50,15v70h0c19.3,0,35-15.7,35-35S69.3,15,50,15L50,15z"></path><path d="M50,86.5C50,86.5,50,86.5,50,86.5h-1.5l0-73H50c9.8,0,18.9,3.8,25.8,10.7S86.5,40.3,86.5,50s-3.8,18.9-10.7,25.8    C68.9,82.7,59.7,86.5,50,86.5z M51.5,16.5v66.9c8.4-0.4,16.2-3.8,22.2-9.8C80,67.4,83.5,59,83.5,50S80,32.6,73.7,26.3    C67.7,20.3,59.9,16.9,51.5,16.5z"></path></g></g></svg>