<svg xmlns="http://www.w3.org/2000/svg" xmlns:xlink="http://www.w3.org/1999/xlink" version="1.1" x="0px" y="0px" viewBox="0 0 96 120" enable-background="new 0 0 96 96" xml:space="preserve"><path fill="grey" d="M28.416,76.572c-1.024,0-2.048-0.393-2.832-1.172L1.172,50.844C0.42,50.092,0,49.068,0,48c0-1.068,0.42-2.088,1.176-2.848  l24.412-24.548c1.56-1.568,4.092-1.576,5.656,0.004c1.56,1.58,1.56,4.12-0.004,5.696L9.664,48l21.58,21.704  c1.56,1.571,1.56,4.116,0,5.688C30.464,76.18,29.432,76.572,28.416,76.572L28.416,76.572z"/><path fill="grey" d="M67.588,76.572c-1.023,0-2.052-0.393-2.828-1.18c-1.568-1.572-1.568-4.117,0-5.697L86.344,48L64.76,26.304  c-1.568-1.58-1.568-4.12,0-5.696c1.568-1.58,4.088-1.576,5.656-0.008l24.412,24.552C95.58,45.9,96,46.928,96,48  c0,1.068-0.42,2.088-1.172,2.844L70.416,75.393C69.641,76.18,68.611,76.572,67.588,76.572L67.588,76.572z"/><path fill="grey" d="M38.348,78c-0.476,0-0.964-0.084-1.436-0.264c-2.06-0.805-3.092-3.133-2.296-5.213l19.868-51.947  c0.795-2.076,3.107-3.096,5.168-2.304c2.06,0.796,3.088,3.124,2.296,5.204L42.072,75.424C41.476,77.016,39.952,78,38.348,78z"/></svg>