<?xml version="1.0" encoding="UTF-8"?>
<svg width="100pt" height="100pt" version="1.1" viewBox="0 0 100 100" xmlns="http://www.w3.org/2000/svg">
 <path d="m81 50c0-1.0625-0.42188-2.0781-1.1719-2.8281s-1.7656-1.1719-2.8281-1.1719h-43.871l16.262-15.16c0.82031-0.71094 1.3125-1.7266 1.3711-2.8125 0.054687-1.082-0.33203-2.1445-1.0742-2.9375-0.74219-0.79297-1.7734-1.25-2.8594-1.2695-1.0859-0.015624-2.1328 0.41016-2.8984 1.1797l-23.691 22.07c-0.80859 0.75781-1.2695 1.8164-1.2695 2.9258s0.46094 2.168 1.2695 2.9258l23.691 22.078c1.6172 1.5078 4.1484 1.4219 5.6562-0.19531 1.5078-1.6133 1.418-4.1484-0.19531-5.6562l-16.262-15.148h43.871c1.0625 0 2.0781-0.42188 2.8281-1.1719s1.1719-1.7656 1.1719-2.8281z"/>
</svg>
