<svg xmlns="http://www.w3.org/2000/svg" xmlns:xlink="http://www.w3.org/1999/xlink" version="1.1" x="0px" y="0px" viewBox="0 0 64 64" style="enable-background:new 0 0 64 64;" xml:space="preserve"><path d="M46.15,47.56L34.12,59.58c-1.17,1.17-3.07,1.17-4.24,0L17.86,47.56L32,33.41L46.15,47.56z"></path><path d="M30.59,32L16.45,46.15L4.42,34.12C3.86,33.55,3.54,32.8,3.54,32s0.32-1.55,0.88-2.12l12.03-12.02L30.59,32z"></path><path d="M46.15,16.45L32,30.59L17.86,16.45L29.88,4.42c1.17-1.17,3.07-1.17,4.24,0L46.15,16.45z"></path><path d="M60.46,32c0,0.8-0.32,1.55-0.88,2.12L47.56,46.15L33.41,32l14.15-14.14l12.02,12.02C60.14,30.45,60.46,31.2,60.46,32z"></path></svg>