<?xml version="1.0" encoding="UTF-8"?>
<svg width="100pt" height="100pt" version="1.1" viewBox="0 0 100 100" xmlns="http://www.w3.org/2000/svg">
 <path d="m37.5 54.168h8.332v8.332c0 2.3008 1.8672 4.168 4.168 4.168s4.168-1.8672 4.168-4.168v-8.332h8.332c2.3008 0 4.168-1.8672 4.168-4.168s-1.8672-4.168-4.168-4.168h-8.332v-8.332c0-2.3008-1.8672-4.168-4.168-4.168s-4.168 1.8672-4.168 4.168v8.332h-8.332c-2.3008 0-4.168 1.8672-4.168 4.168s1.8672 4.168 4.168 4.168zm50-45.836h-75c-2.3008 0-4.168 1.8672-4.168 4.168v75c0 1.1055 0.44141 2.1641 1.2227 2.9453s1.8398 1.2227 2.9453 1.2227h75c1.1055 0 2.1641-0.44141 2.9453-1.2227s1.2227-1.8398 1.2227-2.9453v-75c0-1.1055-0.44141-2.1641-1.2227-2.9453s-1.8398-1.2227-2.9453-1.2227zm-4.168 75h-66.664v-66.664h66.664z"/>
</svg>
