<?xml version="1.0" encoding="UTF-8"?>
<svg width="26px" height="24px" viewBox="0 0 26 24" version="1.1" xmlns="http://www.w3.org/2000/svg" xmlns:xlink="http://www.w3.org/1999/xlink">
    <!-- Generator: Sketch 52.2 (67145) - http://www.bohemiancoding.com/sketch -->
    <title>Shape</title>
    <desc>Created with Sketch.</desc>
    <g id="#13---Direct-Messaging" stroke="none" stroke-width="1" fill="none" fill-rule="evenodd" opacity="0.300000012">
        <g transform="translate(-187.000000, -394.000000)" fill="#CE0000" fill-rule="nonzero" id="Direct-Messaging">
            <g transform="translate(150.000000, 150.000000)">
                <g id="Left-Menu">
                    <g id="Send" transform="translate(0.000000, 219.000000)">
                        <path d="M62.8676234,25.0961979 C62.7518866,24.9949524 62.5871812,24.9714628 62.447582,25.0360398 L37.2248899,36.7244 C37.0890993,36.787349 37.0016555,36.9224723 37.0000232,37.0717824 C36.9983909,37.2210925 37.0829588,37.3580763 37.217428,37.4238937 L44.355411,40.9177189 C44.4863048,40.9818308 44.6423823,40.9673339 44.759285,40.8801976 L51.6993729,35.7067501 L46.2511159,41.2961882 C46.1733881,41.3759598 46.1337469,41.4851903 46.1422969,41.5960488 L46.6847597,48.6420744 C46.6968075,48.7982066 46.8017401,48.9317019 46.9508999,48.9806191 C46.9907743,48.9936431 47.0317369,49 47.0722331,49 C47.1833062,49 47.2913479,48.9524781 47.3665108,48.8656519 L51.1551224,44.4869744 L55.8386149,46.7188735 C55.9402829,46.7673257 56.0579629,46.7693413 56.1612632,46.7245327 C56.2645635,46.6796467 56.3432241,46.5923553 56.376958,46.485218 L62.9821165,25.5037385 C63.0282869,25.3572193 62.9832824,25.1974435 62.8676234,25.0961979 Z" id="Shape"></path>
                    </g>
                </g>
            </g>
        </g>
    </g>
</svg>