<svg xmlns="http://www.w3.org/2000/svg" xmlns:xlink="http://www.w3.org/1999/xlink" version="1.1" x="0px" y="0px" viewBox="0 0 128 128" style="enable-background:new 0 0 128 128;" xml:space="preserve"><g><path d="M51.2,75.2c-10.1-10-31.5-9.4-37.2,5.4c-2.2,5.7-0.5,12-0.4,18.1c0.1,9.1-3.7,18.2-10.4,24.4c8.6,8.1,25.4-0.2,33.7-4.5   c7.4-3.8,14.8-8.5,18.6-15.8c4.5-8.7,2.8-20.2-4-27.2C51.5,75.5,51.3,75.4,51.2,75.2z"></path><path d="M124.6,2.4c-0.4-0.8-1.4-1.2-2.2-0.8c-2.4,1.1-4.7,2.3-6.9,3.6c-1.1,0.6-2.2,1.3-3.3,1.9c-1.1,0.7-2.2,1.3-3.2,2   c-4.3,2.7-8.4,5.6-12.4,8.5c-8,5.9-15.7,12.3-23,19c-7.3,6.7-14.3,13.7-20.8,21.1c-2.4,2.7-4.7,5.4-6.9,8.2   c3.4,1.3,6.6,3.2,9.1,5.7c0.1,0.1,0.3,0.3,0.4,0.4c2.3,2.4,4.1,5.2,5.3,8.2c2.7-2.2,5.3-4.4,7.9-6.7c7.4-6.6,14.4-13.5,21.1-20.8   c6.7-7.3,13-14.9,19-23c3-4,5.8-8.2,8.5-12.4c0.7-1.1,1.3-2.2,2-3.2c0.6-1.1,1.3-2.2,1.9-3.3c1.3-2.2,2.5-4.5,3.6-6.9   C124.8,3.4,124.8,2.9,124.6,2.4z"></path></g></svg>