<svg xmlns:dc="http://purl.org/dc/elements/1.1/" xmlns:cc="http://creativecommons.org/ns#" xmlns:rdf="http://www.w3.org/1999/02/22-rdf-syntax-ns#" xmlns:svg="http://www.w3.org/2000/svg" xmlns="http://www.w3.org/2000/svg" xmlns:sodipodi="http://sodipodi.sourceforge.net/DTD/sodipodi-0.dtd" xmlns:inkscape="http://www.inkscape.org/namespaces/inkscape" viewBox="0 0 26.4583 26.4583" version="1.1" x="0px" y="0px"><g transform="translate(0,-270.542)"><path style="color:#000000;font-style:normal;font-variant:normal;font-weight:normal;font-stretch:normal;font-size:medium;line-height:normal;font-family:sans-serif;font-variant-ligatures:normal;font-variant-position:normal;font-variant-caps:normal;font-variant-numeric:normal;font-variant-alternates:normal;font-feature-settings:normal;text-indent:0;text-align:start;text-decoration:none;text-decoration-line:none;text-decoration-style:solid;text-decoration-color:#000000;letter-spacing:normal;word-spacing:normal;text-transform:none;writing-mode:lr-tb;direction:ltr;text-orientation:mixed;dominant-baseline:auto;baseline-shift:baseline;text-anchor:start;white-space:normal;shape-padding:0;clip-rule:nonzero;display:inline;overflow:visible;visibility:visible;opacity:1;isolation:auto;mix-blend-mode:normal;color-interpolation:sRGB;color-interpolation-filters:linearRGB;solid-color:#000000;solid-opacity:1;vector-effect:none;fill:#000000;fill-opacity:1;fill-rule:nonzero;stroke:none;stroke-width:1.245098;stroke-linecap:square;stroke-linejoin:miter;stroke-miterlimit:4;stroke-dasharray:none;stroke-dashoffset:0;stroke-opacity:1;paint-order:markers fill stroke;color-rendering:auto;image-rendering:auto;shape-rendering:auto;text-rendering:auto;enable-background:accumulate" d="m 1.32292,271.865 v 0.621 9.961 H 11.9068 v -10.582 z m 13.23018,0 v 0.621 9.961 h 10.5823 v -10.582 z m -11.98426,1.244 h 8.09196 v 8.094 H 2.56884 Z m 13.22866,0 h 8.0935 v 8.094 H 15.7975 Z M 1.32292,285.094 v 0.623 9.961 H 11.9068 v -10.584 z m 18.52128,0 c -2.9152,0 -5.2911,2.376 -5.2911,5.291 0,2.915 2.3759,5.293 5.2911,5.293 2.9151,0 5.2912,-2.378 5.2912,-5.293 0,-2.915 -2.3761,-5.291 -5.2912,-5.291 z M 2.56884,286.34 h 8.09196 v 8.092 H 2.56884 Z m 17.27536,0 c 2.2423,0 4.0468,1.803 4.0468,4.045 0,2.242 -1.8045,4.047 -4.0468,4.047 -2.2422,0 -4.0467,-1.805 -4.0467,-4.047 0,-2.242 1.8045,-4.045 4.0467,-4.045 z"></path></g></svg>