<svg xmlns="http://www.w3.org/2000/svg" xmlns:xlink="http://www.w3.org/1999/xlink" version="1.1" x="0px" y="0px" viewBox="0 0 100 125" style="enable-background:new 0 0 100 100;" xml:space="preserve"><g><path fill="grey" d="M73.2,76.4H53.9c-0.4,0-0.8-0.3-1-0.7c-0.1-0.4,0-0.9,0.4-1.1c2.6-1.9,4.5-5.6,4.5-8.7c0-4.4-4.2-6-7.8-6s-7.8,1.6-7.8,6   c0,3.1,1.9,6.8,4.5,8.7c0.3,0.3,0.5,0.7,0.4,1.1s-0.5,0.7-1,0.7H26.8c-1.7,0-3-1.3-3-3V54c0-0.4,0.3-0.8,0.7-1   c0.4-0.1,0.9,0,1.1,0.4c1.9,2.6,5.6,4.5,8.7,4.5c4.4,0,6-4.2,6-7.8s-1.6-7.8-6-7.8c-3.1,0-6.8,1.9-8.7,4.5   c-0.3,0.3-0.7,0.5-1.1,0.4s-0.7-0.5-0.7-1V26.9c0-1.7,1.3-3,3-3h16.8c-2-2.4-3.4-5.6-3.4-8.5c0-4.8,3.9-8,9.8-8s9.8,3.2,9.8,8   c0,2.9-1.3,6.1-3.4,8.5h16.8c1.7,0,3,1.3,3,3v46.5C76.2,75,74.9,76.4,73.2,76.4z"/></g></svg>