<svg width="101px" height="81px" viewBox="0 0 101 81" version="1.1" xmlns="http://www.w3.org/2000/svg" xmlns:xlink="http://www.w3.org/1999/xlink">
    <defs></defs>
    <g id="Page-1" stroke="none" stroke-width="1" fill="none" fill-rule="evenodd">
        <g id="noun_To-Split_76395_000000-(2)" transform="translate(50.500000, 40.500000) rotate(-270.000000) translate(-50.500000, -40.500000) translate(10.000000, -10.000000)" fill-rule="nonzero" fill="#000000">
            <path d="M78.5,11.5 L78.5,87.5 L2.5,87.5 L2.5,11.5 L78.5,11.5 L78.5,11.5 Z M80.5,9.5 L0.5,9.5 L0.5,89.5 L80.5,89.5 L80.5,9.5 L80.5,9.5 Z" id="Shape"></path>
            <path d="M41.5,100.5 L39.5,100.5 L39.5,96.5 L41.5,96.5 L41.5,100.5 Z M41.5,88.5 L39.5,88.5 L39.5,84.5 L41.5,84.5 L41.5,88.5 Z M41.5,76.5 L39.5,76.5 L39.5,72.5 L41.5,72.5 L41.5,76.5 Z M41.5,64.5 L39.5,64.5 L39.5,60.5 L41.5,60.5 L41.5,64.5 Z M41.5,52.5 L39.5,52.5 L39.5,48.5 L41.5,48.5 L41.5,52.5 Z M41.5,40.5 L39.5,40.5 L39.5,36.5 L41.5,36.5 L41.5,40.5 Z M41.5,28.5 L39.5,28.5 L39.5,24.5 L41.5,24.5 L41.5,28.5 Z M41.5,16.5 L39.5,16.5 L39.5,12.5 L41.5,12.5 L41.5,16.5 Z M41.5,4.5 L39.5,4.5 L39.5,0.5 L41.5,0.5 L41.5,4.5 Z" id="Shape"></path>
        </g>
    </g>
</svg>