<svg xmlns="http://www.w3.org/2000/svg" data-name="Layer 1" viewBox="0 0 100 125" x="0px" y="0px"><title>47</title><g data-name="Group"><path fill="grey" data-name="Path" d="M13.8,88.2a2,2,0,0,0,1.4-.6L62,40.8A2,2,0,0,0,59.2,38L12.4,84.8a2,2,0,0,0,1.4,3.4Z"/><path fill="grey" data-name="Path" d="M54.8,13.8V26.6a2,2,0,1,0,4,0V13.8a2,2,0,0,0-4,0Z"/><path fill="grey" data-name="Path" d="M88.2,43.2a2,2,0,0,0-2-2H73.4a2,2,0,0,0,0,4H86.2A2,2,0,0,0,88.2,43.2Z"/><path fill="grey" data-name="Path" d="M71.7,31.1l9.5-9.5a2,2,0,0,0-2.8-2.8l-9.5,9.5a2,2,0,1,0,2.8,2.8Z"/><path fill="grey" data-name="Path" d="M34.5,34.1a2,2,0,0,0,0,4H47.2a2,2,0,0,0,0-4Z"/><path fill="grey" data-name="Path" d="M65.9,65.5V52.8a2,2,0,0,0-4,0V65.5a2,2,0,0,0,4,0Z"/></g></svg>