<?xml version="1.0" encoding="UTF-8"?>
<svg width="100pt" height="100pt" version="1.1" viewBox="0 0 100 100" xmlns="http://www.w3.org/2000/svg">
 <g>
  <path d="m73.75 51.25c0 12.426-10.074 22.5-22.5 22.5s-22.5-10.074-22.5-22.5 10.074-22.5 22.5-22.5 22.5 10.074 22.5 22.5"/>
  <path d="m50 39.75v-1.75h2.875v1.75c2.5 0.5 3.875 2.5 3.875 5.5v0.75h-3.375v-1c0-1.625-0.625-2.25-1.75-2.25s-1.75 0.625-1.75 2.25c0 4.625 7 4.875 7 11.375 0 3.125-1.375 5.125-3.875 5.625v1.75h-3v-1.625c-2.625-0.5-3.875-2.5-3.875-5.625v-1.5h3.375v1.75c0 1.625 0.75 2.25 1.875 2.25s1.875-0.625 1.875-2.25c0-4.625-7-4.875-7-11.375 0-3.125 1.25-5 3.75-5.625z"/>
 </g>
</svg>
