<?xml version="1.0" encoding="UTF-8"?>
<svg width="100pt" height="100pt" version="1.1" viewBox="0 0 100 100" xmlns="http://www.w3.org/2000/svg">
 <g fill-rule="evenodd">
  <path d="m93.75 37.5v41.668c0 1.6562-0.66016 3.2461-1.832 4.418-1.1719 1.1719-2.7578 1.832-4.418 1.832h-75c-3.4531 0-6.25-2.8008-6.25-6.25v-58.336c0-3.4492 2.7969-6.25 6.25-6.25h21.547c1.6602 0 3.25 0.66016 4.418 1.832 3.1602 3.1562 8.6328 8.6289 11.789 11.785 1.9531 1.9531 4.6016 3.0508 7.3633 3.0508h29.883c1.6602 0 3.2461 0.66016 4.418 1.832s1.832 2.7578 1.832 4.418z"/>
  <path d="m50.863 22.918 2.3359 2.3359c1.1719 1.1719 2.7617 1.8281 4.418 1.8281h29.883c2.2656 0 4.457 0.74219 6.25 2.0859 0-1.6602-0.66016-3.25-1.832-4.4219s-2.7578-1.8281-4.418-1.8281z"/>
 </g>
</svg>
