<?xml version="1.0" encoding="UTF-8"?>
<svg width="100pt" height="100pt" version="1.1" viewBox="0 0 100 100" xmlns="http://www.w3.org/2000/svg">
 <g fill-rule="evenodd">
  <path d="m64.062 14.062c0 7.7656-6.2969 14.062-14.062 14.062s-14.062-6.2969-14.062-14.062 6.2969-14.062 14.062-14.062 14.062 6.2969 14.062 14.062"/>
  <path d="m25.809 20.098c6.6484 3.8359 8.9258 12.336 5.0898 18.984-3.8398 6.6484-12.34 8.9258-18.988 5.0859-6.6445-3.8359-8.9219-12.336-5.0859-18.984 3.8398-6.6484 12.34-8.9258 18.984-5.0859"/>
  <path d="m11.91 56.023c6.6484-3.8359 15.148-1.5586 18.988 5.0859 3.8359 6.6484 1.5586 15.148-5.0898 18.988-6.6445 3.8359-15.145 1.5586-18.984-5.0898-3.8359-6.6445-1.5586-15.145 5.0859-18.984"/>
  <path d="m64.062 85.938c0 7.7656-6.2969 14.062-14.062 14.062s-14.062-6.2969-14.062-14.062 6.2969-14.062 14.062-14.062 14.062 6.2969 14.062 14.062"/>
  <path d="m74.137 80.098c-6.6445-3.8398-8.9219-12.34-5.0859-18.988 3.8398-6.6445 12.34-8.9219 18.984-5.0859 6.6484 3.8398 8.9258 12.34 5.0898 18.984-3.8398 6.6484-12.34 8.9258-18.988 5.0898"/>
  <path d="m88.035 44.168c-6.6445 3.8398-15.145 1.5625-18.984-5.0859-3.8359-6.6484-1.5586-15.148 5.0859-18.984 6.6484-3.8398 15.148-1.5625 18.988 5.0859 3.8359 6.6484 1.5586 15.148-5.0898 18.984"/>
  <path d="m64.062 50c0 7.7656-6.2969 14.062-14.062 14.062s-14.062-6.2969-14.062-14.062 6.2969-14.062 14.062-14.062 14.062 6.2969 14.062 14.062"/>
 </g>
</svg>
