<?xml version="1.0" encoding="UTF-8"?>
<svg width="100pt" height="100pt" version="1.1" viewBox="0 0 100 100" xmlns="http://www.w3.org/2000/svg">
 <path d="m83.562 46.344-31.25-31.25c-1.2148-1.1914-3.1602-1.1914-4.375 0l-31.25 31.25c-0.82031 0.87891-1.0664 2.1562-0.625 3.2773s1.4844 1.8867 2.6875 1.9727h3.8125v31.25c0 0.82812 0.32812 1.625 0.91406 2.2109 0.58594 0.58594 1.3828 0.91406 2.2109 0.91406h17.5v-20.969c0-1.7266 1.3984-3.125 3.125-3.125h7.5625c0.82812 0 1.625 0.32812 2.2109 0.91406 0.58594 0.58594 0.91406 1.3828 0.91406 2.2109v20.938h17.5c0.82812 0 1.625-0.32812 2.2109-0.91406 0.58594-0.58594 0.91406-1.3828 0.91406-2.2109v-31.25h3.9688c1.1719-0.125 2.1719-0.90234 2.5898-2.0039 0.41406-1.1016 0.17578-2.3477-0.62109-3.2148z"/>
</svg>
