<?xml version="1.0" encoding="UTF-8"?>
<svg width="100pt" height="100pt" version="1.1" viewBox="0 0 100 100" xmlns="http://www.w3.org/2000/svg">
 <path d="m76.562 12.5h-53.125c-5.9375 0-10.938 5-10.938 10.938v53.125c0 5.9375 5 10.938 10.938 10.938h52.812c5.9375 0 10.938-5 10.938-10.938v-53.125c0.3125-5.9375-4.6875-10.938-10.625-10.938zm-53.125 9.375h52.812c1.25 0 1.875 0.625 1.875 1.5625v23.438l-10-11.25c-1.5625-1.875-4.375-2.1875-6.25-0.625l-12.5 9.6875-10.625-7.8125c-1.875-1.25-4.375-1.25-5.9375 0.3125l-10.938 10.625v-24.375c0-0.9375 0.625-1.5625 1.5625-1.5625z"/>
</svg>
