<?xml version="1.0" encoding="UTF-8"?>
<svg width="100pt" height="100pt" version="1.1" viewBox="0 0 100 100" xmlns="http://www.w3.org/2000/svg">
 <path d="m89.488 37.152-26.645-26.645c-3.4102-3.418-7.9766-5.3008-12.844-5.3008s-9.4336 1.8828-12.848 5.3008l-26.641 26.645c-3.418 3.418-5.3047 7.9805-5.3047 12.848s1.8828 9.4336 5.3008 12.848l26.645 26.645c3.4141 3.4141 7.9805 5.3008 12.848 5.3008s9.4336-1.8828 12.848-5.3008l26.645-26.645c3.4141-3.418 5.3008-7.9805 5.3008-12.848s-1.8867-9.4297-5.3047-12.848zm-4.418 21.273-26.645 26.645c-4.4766 4.4766-12.379 4.4766-16.855 0l-26.645-26.645c-2.2344-2.2383-3.4688-5.2266-3.4688-8.4258s1.2344-6.1914 3.4727-8.4297l26.645-26.645c2.2383-2.2344 5.2266-3.4688 8.4258-3.4688s6.1875 1.2344 8.4258 3.4688l26.645 26.645c2.2383 2.2383 3.4727 5.2305 3.4727 8.4297s-1.2344 6.1875-3.4727 8.4258z"/>
</svg>
