<?xml version="1.0" encoding="UTF-8"?>
<svg width="100pt" height="100pt" version="1.1" viewBox="0 0 100 100" xmlns="http://www.w3.org/2000/svg">
 <path d="m66.859 57c3.6133-8.457 3.4062-18.066-0.57422-26.359-3.9766-8.293-11.336-14.469-20.195-16.945-8.8594-2.4766-18.355-1.0117-26.059 4.0195-7.7031 5.0273-12.859 13.133-14.156 22.238-1.2969 9.1094 1.3984 18.332 7.3906 25.309 5.9922 6.9766 14.703 11.035 23.902 11.129 3.332 6.5547 14.555 11.109 28.109 11.109 16.641 0 29.168-6.5547 29.168-15.277 0-8.4453-11.75-14.863-27.586-15.223zm-55.75-12.555c0-9.4297 5.0312-18.141 13.195-22.855 8.1641-4.7109 18.227-4.7109 26.391 0 8.1641 4.7148 13.195 13.426 13.195 22.855 0.015625 4.9102-1.3633 9.7266-3.9727 13.887-4.543 7.3398-12.383 11.996-21 12.473-0.47266 0.027343-0.94531 0.027343-1.418 0.027343-6.9961-0.003906-13.707-2.7891-18.652-7.7344-4.9492-4.9492-7.7305-11.656-7.7383-18.652z"/>
</svg>
