<?xml version="1.0" encoding="UTF-8"?>
<svg width="100pt" height="100pt" version="1.1" viewBox="0 0 100 100" xmlns="http://www.w3.org/2000/svg">
 <path d="m81.414 18.586c-8.3281-8.3438-19.633-13.035-31.422-13.039-11.789-0.003906-23.098 4.6758-31.434 13.012-8.3359 8.3359-13.016 19.645-13.012 31.434 0.003906 11.789 4.6953 23.094 13.039 31.422 8.3281 8.3438 19.633 13.035 31.422 13.039 11.789 0.003906 23.098-4.6758 31.434-13.012 8.3359-8.3359 13.016-19.645 13.012-31.434-0.003906-11.789-4.6953-23.094-13.039-31.422zm-68.238 31.414c-0.015625-9.582 3.7109-18.789 10.387-25.664 6.6719-6.875 15.762-10.875 25.34-11.148 9.5781-0.26953 18.883 3.2031 25.938 9.6875-0.42188 13.648-6.0312 26.621-15.688 36.277s-22.629 15.266-36.277 15.688c-6.25-6.7617-9.7148-15.633-9.6992-24.84z"/>
</svg>
