<?xml version="1.0" encoding="UTF-8"?>
<svg width="100pt" height="100pt" version="1.1" viewBox="0 0 100 100" xmlns="http://www.w3.org/2000/svg">
 <g>
  <path d="m78 50c0-10.004-5.3359-19.246-14-24.25-8.6641-5-19.336-5-28 0-8.6641 5.0039-14 14.246-14 24.25v3h6v-3c0-5.8359 2.3164-11.43 6.4453-15.555 4.125-4.1289 9.7188-6.4453 15.555-6.4453s11.43 2.3164 15.555 6.4453c4.1289 4.125 6.4453 9.7188 6.4453 15.555s-2.3164 11.43-6.4453 15.555c-4.125 4.1289-9.7188 6.4453-15.555 6.4453h-3v6h3c7.4258 0 14.547-2.9492 19.801-8.1992 5.25-5.2539 8.1992-12.375 8.1992-19.801z"/>
  <path d="m53 63h6v-18c0-1.0625-0.42188-2.0781-1.1719-2.8281s-1.7656-1.1719-2.8281-1.1719h-18v6h11.762l-26 26 4.2383 4.2383 26-26z"/>
 </g>
</svg>
