 <svg version="1.0" xmlns="http://www.w3.org/2000/svg" width="700.000000pt" height="639.000000pt" viewBox="0 0 700.000000 639.000000" preserveAspectRatio="xMidYMid meet">
<metadata>
Created by potrace 1.12, written by Peter Selinger 2001-2015
</metadata>
<g transform="translate(0.000000,639.000000) scale(0.100000,-0.100000)" fill="#000000" stroke="none">
<path d="M1665 6381 c-3 -5 -36 -12 -73 -16 -316 -29 -604 -151 -735 -310 -63
-76 -157 -257 -157 -302 0 -8 -6 -35 -14 -61 -39 -132 -51 -348 -32 -597 23
-309 31 -659 17 -723 -33 -156 -143 -288 -311 -375 -50 -26 -97 -47 -103 -47
-7 0 -25 -7 -41 -15 -31 -17 -76 -30 -164 -48 l-52 -11 0 -271 0 -270 68 -19
c153 -44 344 -144 433 -227 89 -85 151 -192 171 -297 13 -70 4 -401 -18 -687
-37 -465 43 -775 251 -981 75 -75 79 -77 197 -135 105 -52 186 -78 348 -113
161 -34 259 -39 970 -45 l715 -6 160 -78 c88 -43 203 -99 255 -124 52 -24 102
-49 110 -54 8 -5 22 -12 30 -15 16 -7 97 -45 260 -122 222 -105 289 -137 425
-202 77 -37 172 -82 210 -100 39 -18 101 -48 139 -66 116 -58 105 -94 108 364
l3 397 210 6 c280 8 433 27 615 76 338 91 542 283 623 588 51 192 60 399 32
741 -22 272 -21 544 2 609 79 218 270 371 591 470 l62 20 -2 269 -3 269 -53
13 c-259 67 -466 193 -545 333 -64 113 -68 136 -68 356 1 110 6 245 11 300 18
168 24 570 10 655 -6 41 -15 98 -20 127 -23 143 -111 328 -200 420 -55 58
-133 115 -205 151 -124 62 -343 121 -507 137 -37 4 -70 11 -73 16 -8 12 -3642
12 -3650 0z m2010 -580 c3 -5 -189 -207 -427 -448 -390 -395 -435 -443 -449
-488 -16 -46 -28 -92 -66 -235 -7 -30 -20 -77 -28 -105 -8 -27 -17 -61 -20
-75 -3 -14 -12 -47 -19 -75 -8 -27 -24 -86 -36 -130 -12 -44 -28 -104 -36
-133 -7 -28 -21 -78 -29 -110 -9 -31 -20 -73 -24 -92 -5 -19 -19 -71 -31 -115
-31 -115 -44 -165 -80 -300 -18 -66 -38 -144 -46 -172 -8 -29 -21 -79 -30
-110 -9 -32 -21 -80 -29 -108 -7 -27 -23 -86 -35 -130 -12 -44 -24 -89 -27
-100 -6 -27 -31 -117 -51 -185 -10 -31 -17 -87 -16 -130 0 -63 5 -82 26 -115
33 -51 64 -79 108 -97 86 -36 94 -35 465 66 28 8 104 28 170 46 118 32 172 46
280 75 30 9 79 22 107 29 29 8 89 24 133 36 44 12 89 24 100 27 11 2 44 11 73
19 96 26 156 42 222 59 95 24 219 58 443 119 28 8 81 22 117 31 82 22 144 38
245 66 l80 23 486 484 486 483 39 -41 c21 -23 68 -61 104 -85 62 -40 210 -115
230 -115 5 0 21 -5 37 -12 15 -6 46 -16 68 -22 41 -11 52 -33 25 -46 -8 -4
-40 -15 -70 -25 -97 -31 -210 -84 -286 -136 -118 -80 -204 -235 -235 -426 -18
-109 -22 -325 -10 -503 27 -385 31 -526 21 -625 -26 -248 -126 -373 -355 -441
-53 -15 -120 -18 -545 -23 l-485 -6 -3 -248 c-2 -230 -4 -247 -20 -247 -10 0
-188 113 -395 250 l-377 250 -840 0 c-735 0 -850 2 -922 16 -213 42 -320 137
-385 341 -15 50 -18 89 -17 274 1 119 7 266 14 325 20 173 19 542 -2 641 -41
195 -102 314 -203 396 -53 43 -246 147 -274 147 -6 0 -25 6 -43 14 -18 8 -46
17 -61 21 -51 11 -29 36 58 64 44 15 90 32 102 39 12 7 26 12 31 12 5 0 47 21
93 46 186 102 260 221 305 489 13 82 15 137 10 310 -4 116 -11 252 -17 303 -6
52 -11 198 -12 325 -2 199 1 240 16 288 59 186 162 276 372 328 76 18 123 19
1022 20 574 1 944 -3 948 -8z m1599 -15 l39 -18 -724 -724 c-471 -471 -730
-724 -741 -722 -19 3 -480 456 -476 468 2 4 229 236 505 514 l501 507 429 -3
c388 -3 432 -5 467 -22z m388 -437 c8 -55 -5 -415 -22 -637 -6 -67 -10 -145
-10 -173 l0 -50 -480 -487 c-265 -268 -487 -488 -493 -490 -13 -3 -448 427
-456 450 -4 13 1430 1449 1444 1445 5 -2 13 -28 17 -58z m-1994 -1542 c276
-276 502 -508 502 -515 0 -7 -6 -14 -12 -16 -19 -6 -114 -31 -188 -51 -36 -10
-85 -23 -110 -30 -25 -7 -74 -20 -110 -30 -36 -9 -87 -23 -115 -30 -27 -8 -79
-21 -115 -30 -36 -9 -81 -21 -99 -27 -34 -10 -68 -19 -199 -52 -41 -11 -69
-13 -80 -7 -9 5 -75 68 -145 139 -96 98 -127 135 -123 149 3 10 15 54 27 98
12 44 27 103 35 130 7 28 20 75 28 105 13 49 53 199 91 345 8 28 24 86 35 130
12 44 26 97 31 119 11 44 26 76 37 76 4 0 233 -226 510 -503z"></path>
</g>
</svg>