<svg xmlns="http://www.w3.org/2000/svg" data-name="Layer 1" viewBox="0 0 100 125" x="0px" y="0px"><title>BasicUI</title><path fill="grey" d="M93.33,11.88c-3.35-3.35-6.6-1.16-10,2.19L30.76,62.34c3.18.67,6.73,3.93,9.5,7a8.51,8.51,0,0,1,2.15,5.45l.18-.07L91.14,21.84C94.49,18.48,96.68,15.24,93.33,11.88Z"/><path fill="grey" d="M26.85,65.11c-6.52-.39-7.93,6.32-9.14,11.11S6.81,85.37,5,85.37c0,0,7.22,4.9,18.49,4.38a22.11,22.11,0,0,0,12.79-5.3,8.46,8.46,0,0,0,.92-12.17C34.19,68.89,30.24,65.32,26.85,65.11Z"/></svg>