<svg xmlns="http://www.w3.org/2000/svg" xmlns:xlink="http://www.w3.org/1999/xlink" version="1.1" x="0px" y="0px" viewBox="0 0 100 100" enable-background="new 0 0 100 100" xml:space="preserve"><path d="M89.7,89.9c-0.2,0.2-0.3,0.4-0.3,0.7c0,0.3,0.1,0.5,0.3,0.7c0.2,0.2,0.4,0.3,0.7,0.3c0.3,0,0.5-0.1,0.7-0.3  c0.2-0.2,0.3-0.4,0.3-0.7c0-0.3-0.1-0.5-0.3-0.7C90.8,89.6,90.1,89.6,89.7,89.9z"></path><path d="M60.5,91.7c0.5,0,1-0.4,1-1c0-0.5-0.5-1-1-1c-0.6,0-1,0.5-1,1C59.5,91.2,59.9,91.7,60.5,91.7z"></path><circle cx="82.9" cy="90.7" r="1"></circle><path d="M68,91.7c0.5,0,1-0.4,1-1c0-0.5-0.5-1-1-1c-0.6,0-1,0.5-1,1C67,91.2,67.4,91.7,68,91.7z"></path><circle cx="75.5" cy="90.7" r="1"></circle><path d="M52.3,89.9c-0.2,0.2-0.3,0.5-0.3,0.7c0,0.3,0.1,0.5,0.3,0.7c0.2,0.2,0.4,0.3,0.7,0.3c0.3,0,0.5-0.1,0.7-0.3  c0.2-0.2,0.3-0.4,0.3-0.7c0-0.3-0.1-0.5-0.3-0.7C53.3,89.6,52.6,89.6,52.3,89.9z"></path><path d="M91.6,38.1c0,0.6-0.4,1-1,1s-1-0.4-1-1v-7.7c0-7.5-6.1-13.6-13.6-13.6H62.4l4.8,4.8c0.4,0.4,0.4,1,0,1.4  c-0.2,0.2-0.5,0.3-0.7,0.3s-0.5-0.1-0.7-0.3l-6.5-6.5c-0.2-0.2-0.3-0.4-0.3-0.7s0.1-0.5,0.3-0.7l6.5-6.5c0.4-0.4,1-0.4,1.4,0  s0.4,1,0,1.4l-4.8,4.8H76c8.6,0,15.6,7,15.6,15.6V38.1z M53,59.7c-0.6,0-1,0.4-1,1c0,0.6,0.4,1,1,1c0.6,0,1-0.4,1-1  C54,60.1,53.5,59.7,53,59.7z M53,82.2c-0.6,0-1,0.4-1,1c0,0.5,0.4,1,1,1c0.6,0,1-0.5,1-1C54,82.6,53.5,82.2,53,82.2z M53,67.2  c-0.6,0-1,0.4-1,1c0,0.5,0.4,1,1,1c0.6,0,1-0.5,1-1C54,67.6,53.5,67.2,53,67.2z M53,74.7c-0.6,0-1,0.5-1,1c0,0.6,0.4,1,1,1  c0.6,0,1-0.4,1-1C54,75.1,53.5,74.7,53,74.7z M53.7,52.5c-0.4-0.4-1-0.4-1.4,0c-0.2,0.2-0.3,0.4-0.3,0.7c0,0.3,0.1,0.5,0.3,0.7  c0.2,0.2,0.5,0.3,0.7,0.3c0.3,0,0.5-0.1,0.7-0.3c0.2-0.2,0.3-0.4,0.3-0.7C54,52.9,53.9,52.7,53.7,52.5z M82.9,52.2c-0.5,0-1,0.4-1,1  c0,0.5,0.5,1,1,1c0.6,0,1-0.5,1-1C83.9,52.6,83.5,52.2,82.9,52.2z M68,54.2c0.5,0,1-0.5,1-1c0-0.6-0.5-1-1-1c-0.6,0-1,0.4-1,1  C67,53.8,67.4,54.2,68,54.2z M60.5,54.2c0.5,0,1-0.5,1-1c0-0.6-0.5-1-1-1c-0.6,0-1,0.4-1,1C59.5,53.8,59.9,54.2,60.5,54.2z   M76.5,53.2c0-0.6-0.5-1-1-1c-0.6,0-1,0.4-1,1c0,0.5,0.4,1,1,1C76,54.2,76.5,53.8,76.5,53.2z M91.1,52.5c-0.4-0.4-1-0.4-1.4,0  c-0.2,0.2-0.3,0.4-0.3,0.7c0,0.3,0.1,0.5,0.3,0.7c0.2,0.2,0.4,0.3,0.7,0.3c0.3,0,0.5-0.1,0.7-0.3c0.2-0.2,0.3-0.4,0.3-0.7  C91.4,52.9,91.3,52.7,91.1,52.5z M90.4,82.2c-0.5,0-1,0.4-1,1c0,0.5,0.5,1,1,1s1-0.5,1-1C91.4,82.6,91,82.2,90.4,82.2z M90.4,67.2  c-0.5,0-1,0.4-1,1c0,0.5,0.5,1,1,1s1-0.5,1-1C91.4,67.6,91,67.2,90.4,67.2z M90.4,59.7c-0.5,0-1,0.4-1,1c0,0.6,0.5,1,1,1s1-0.4,1-1  C91.4,60.1,91,59.7,90.4,59.7z M90.4,74.7c-0.5,0-1,0.5-1,1c0,0.6,0.5,1,1,1s1-0.4,1-1C91.4,75.1,91,74.7,90.4,74.7z M32.8,91.4  c0.2,0.2,0.5,0.3,0.7,0.3s0.5-0.1,0.7-0.3l6.5-6.5c0.2-0.2,0.3-0.4,0.3-0.7s-0.1-0.5-0.3-0.7L34.3,77c-0.4-0.4-1-0.4-1.4,0  s-0.4,1,0,1.4l4.8,4.8H24c-7.5,0-13.6-6.1-13.6-13.6v-7.7c0-0.6-0.4-1-1-1s-1,0.4-1,1v7.7c0,8.6,7,15.6,15.6,15.6h13.6L32.8,90  C32.5,90.3,32.5,91,32.8,91.4z M47,47.8H9.6c-0.6,0-1-0.4-1-1V9.3c0-0.6,0.4-1,1-1H47c0.6,0,1,0.4,1,1v37.5  C48,47.3,47.6,47.8,47,47.8z M46,10.3H10.6v35.5H46V10.3z"></path></svg>