<svg xmlns="http://www.w3.org/2000/svg" xmlns:xlink="http://www.w3.org/1999/xlink" version="1.1" x="0px" y="0px" viewBox="0 0 100 125" enable-background="new 0 0 100 100" xml:space="preserve"><path fill="grey" d="M73.059,26.206H62.063h-7.125h-9.875h-7.125H26.941c-0.761,0-1.379,0.617-1.379,1.379v6.496v7.031  c0,0.762,0.617,1.379,1.379,1.379h1.587c0.738,0,1.356-0.543,1.459-1.274c0.335-2.379,1.776-7.249,7.95-7.136h4.589  c0.762,0,1.379,0.617,1.379,1.379v1.314V47.74v17.563c0,1.625-1.317,2.942-2.942,2.942h-3.901v1.906v0.198v0.552v1.514  c0,0.761,0.617,1.379,1.379,1.379h23.117c0.762,0,1.379-0.617,1.379-1.379v-1.982v-2.188h-3.901c-1.625,0-2.942-1.317-2.942-2.942  V47.74V36.773V35.46c0-0.762,0.617-1.379,1.379-1.379h4.589c6.174-0.112,7.615,4.757,7.95,7.136  c0.103,0.731,0.721,1.274,1.459,1.274h1.587c0.762,0,1.379-0.617,1.379-1.379v-7.031v-6.496  C74.438,26.823,73.82,26.206,73.059,26.206z"/></svg>