<?xml version="1.0" encoding="UTF-8"?>
<svg width="1200pt" height="1200pt" version="1.1" viewBox="0 0 1200 1200" xmlns="http://www.w3.org/2000/svg">
 <path d="m927.28 0c-54.539 0-54.539 0-54.539 54.539 0 54.539 0 54.539 54.539 54.539 54.539 0 54.539 0 54.539-54.539 0-54.539 0-54.539-54.539-54.539zm218.18 218.18c-54.539 0-54.539 0-54.539 54.539 0 54.539 0 54.539 54.539 54.539 54.539 0 54.539 0 54.539-54.539 0-54.539 0-54.539-54.539-54.539zm0 218.18c-54.539 0-54.539 0-54.539 54.539s0 54.539 54.539 54.539c54.539 0 54.539 0 54.539-54.539s0-54.539-54.539-54.539zm-436.37-436.37c-54.539 0-54.539 0-54.539 54.539 0 54.539 0 54.539 54.539 54.539s54.539 0 54.539-54.539c0-54.539 0-54.539-54.539-54.539zm436.37 654.54c-54.539 0-54.539 0-54.539 54.539s0 54.539 54.539 54.539c54.539 0 54.539 0 54.539-54.539s0-54.539-54.539-54.539zm-654.55-654.54c-54.539 0-54.539 0-54.539 54.539 0 54.539 0 54.539 54.539 54.539s54.539 0 54.539-54.539c0.003907-54.539 0.015626-54.539-54.539-54.539zm654.55 872.72c-54.539 0-54.539 0-54.539 54.539 0 54.539 0 54.539 54.539 54.539 54.539 0 54.539 0 54.539-54.539 0-54.539 0-54.539-54.539-54.539zm-872.74-872.72c-54.539 0-54.539 0-54.539 54.539 0 54.539 0 54.539 54.539 54.539 54.539 0 54.539 0 54.539-54.539 0.003906-54.539 0.015625-54.539-54.539-54.539zm872.74 1090.9c-54.539 0-54.539 0-54.539 54.539 0 54.539 0 54.539 54.539 54.539 54.539 0.003906 54.539 0.015625 54.539-54.523 0-54.539 0-54.555-54.539-54.555zm-1090.9-1090.9c-54.539 0-54.539 0-54.539 54.539 0 54.539 0 54.539 54.539 54.539 54.539 0 54.539 0 54.539-54.539 0-54.539 0.015625-54.539-54.539-54.539zm872.74 1090.9c-54.539 0-54.539 0-54.539 54.539 0 54.539 0 54.539 54.539 54.539 54.539 0 54.539 0 54.539-54.539 0-54.539 0-54.539-54.539-54.539zm-872.74-872.72c-54.539 0-54.539 0-54.539 54.539 0 54.539 0 54.539 54.539 54.539 54.539 0 54.539 0 54.539-54.539 0-54.539 0.015625-54.539-54.539-54.539zm0 218.18c-54.539 0-54.539 0-54.539 54.539s0 54.539 54.539 54.539c54.539 0 54.539 0 54.539-54.539s0.015625-54.539-54.539-54.539zm654.55 654.54c-54.539 0-54.539 0-54.539 54.539 0 54.539 0 54.539 54.539 54.539s54.539 0 54.539-54.539c0-54.539 0-54.539-54.539-54.539zm-654.55-436.37c-54.539 0-54.539 0-54.539 54.555 0 54.551 0 54.539 54.539 54.539 54.539 0 54.539 0 54.539-54.539 0-54.543 0.015625-54.555-54.539-54.555zm436.37 436.37c-54.539 0-54.539 0-54.539 54.539 0 54.539 0 54.539 54.539 54.539s54.539 0 54.539-54.539c0.003907-54.539 0.015626-54.539-54.539-54.539zm-436.37-218.18c-54.539 0-54.539 0-54.539 54.555 0 54.551 0 54.539 54.539 54.539 54.539 0 54.539 0 54.539-54.539 0-54.543 0.015625-54.555-54.539-54.555zm218.18 218.18c-54.539 0-54.539 0-54.539 54.539 0 54.539 0 54.539 54.539 54.539 54.539 0 54.539 0 54.539-54.539 0.003906-54.539 0.015625-54.539-54.539-54.539zm-218.18 0c-54.539 0-54.539 0-54.539 54.555 0 54.551 0 54.539 54.539 54.539 54.539 0 54.539 0 54.539-54.539 0-54.539 0.015625-54.555-54.539-54.555zm1090.9-1090.9c-54.539 0-54.539 0-54.539 54.539 0 54.539 0 54.539 54.539 54.539 54.539 0 54.539 0 54.539-54.539 0-54.539 0-54.539-54.539-54.539z"/>
</svg>
