<?xml version="1.0" encoding="UTF-8"?>
<svg width="100pt" height="100pt" version="1.1" viewBox="0 0 100 100" xmlns="http://www.w3.org/2000/svg">
 <path d="m85.328 6.5h-70.656c-4.5156 0-8.1719 3.6562-8.1719 8.1719v70.656c0 2.168 0.85938 4.2461 2.3945 5.7773 1.5312 1.5352 3.6094 2.3945 5.7773 2.3945h70.656c2.168 0 4.2461-0.85938 5.7773-2.3945 1.5352-1.5312 2.3945-3.6094 2.3945-5.7773v-70.656c0-2.168-0.85938-4.2461-2.3945-5.7773-1.5312-1.5352-3.6094-2.3945-5.7773-2.3945zm1.1719 78.828c0 0.64844-0.52344 1.1719-1.1719 1.1719h-70.656c-0.64844 0-1.1719-0.52344-1.1719-1.1719v-70.656c0-0.64844 0.52344-1.1719 1.1719-1.1719h70.656c0.64844 0 1.1719 0.52344 1.1719 1.1719z"/>
</svg>
