<?xml version="1.0" encoding="UTF-8"?>
<svg width="100pt" height="100pt" version="1.1" viewBox="0 0 100 100" xmlns="http://www.w3.org/2000/svg">
 <path d="m50 94.793c-4.875 0-9.418-1.875-12.836-5.293l-26.625-26.625c-3.4141-3.418-5.2891-8-5.2891-12.832 0-4.8359 1.875-9.418 5.2891-12.836l12.914-12.91c0.10938-0.16406 0.23438-0.32031 0.37891-0.46484s0.30078-0.26953 0.46484-0.37891l12.867-12.871c3.418-3.4141 8-5.2891 12.836-5.2891 4.832 0 9.4141 1.875 12.832 5.2891l12.867 12.867c0.16406 0.10938 0.32031 0.23828 0.46875 0.38281 0.14453 0.14844 0.27344 0.30469 0.38281 0.46875l12.906 12.906c3.418 3.418 5.293 8 5.293 12.836 0 4.832-1.875 9.4141-5.293 12.832l-13.25 13.25-0.039062 0.042969-0.042969 0.039062-13.293 13.293c-3.418 3.418-7.957 5.293-12.832 5.293zm19.539-68.75-11.125-11.125c-2.207-2.2109-5.207-3.4609-8.4141-3.4609-3.2109 0-6.2109 1.25-8.418 3.4609l-11.125 11.125 19.543 19.539zm-15.121 23.957 19.539-19.543 11.082 11.086c2.2109 2.207 3.4609 5.207 3.4609 8.4141 0 3.2109-1.2109 6.168-3.4609 8.418l-11.121 11.125zm-4.418 4.418 19.5 19.5-11.086 11.082c-4.457 4.457-12.375 4.457-16.832 0l-11.082-11.082zm-4.418-4.418-19.5 19.5-11.125-11.125c-2.207-2.207-3.457-5.25-3.457-8.418 0-3.1641 1.207-6.1641 3.457-8.4141l11.086-11.086z" fill-rule="evenodd"/>
</svg>
