<?xml version="1.0" encoding="UTF-8"?>
<svg width="100pt" height="100pt" version="1.1" viewBox="0 0 100 100" xmlns="http://www.w3.org/2000/svg">
 <g>
  <path d="m50 25c13.75 0 25 11.25 25 25s-11.25 25-25 25-25-11.25-25-25 11.25-25 25-25m0-8.332c-18.332 0-33.332 15-33.332 33.332s15 33.332 33.332 33.332 33.332-15 33.332-33.332-15-33.332-33.332-33.332z"/>
  <path d="m50 41.668c4.582 0 8.332 3.75 8.332 8.332s-3.75 8.332-8.332 8.332-8.332-3.75-8.332-8.332 3.75-8.332 8.332-8.332m0-8.3359c-9.168 0-16.668 7.5-16.668 16.668s7.5 16.668 16.668 16.668 16.668-7.5 16.668-16.668-7.5-16.668-16.668-16.668z"/>
 </g>
</svg>
