<?xml version="1.0" encoding="UTF-8"?>
<svg width="100pt" height="100pt" version="1.1" viewBox="0 0 100 100" xmlns="http://www.w3.org/2000/svg">
 <g fill-rule="evenodd">
  <path d="m44.793 25c0 10.93-8.8633 19.793-19.793 19.793s-19.793-8.8633-19.793-19.793 8.8633-19.793 19.793-19.793 19.793 8.8633 19.793 19.793"/>
  <path d="m53.453 90.27c-0.48438 0.96484-0.43359 2.1172 0.13672 3.0391 0.57031 0.92188 1.5742 1.4844 2.6602 1.4844h35.418c1.082 0 2.0859-0.5625 2.6602-1.4844 0.57031-0.92188 0.62109-2.0703 0.13672-3.0391l-17.707-35.418c-0.52734-1.0586-1.6133-1.7305-2.7969-1.7305-1.1836 0-2.2656 0.67188-2.7969 1.7305l-17.707 35.418z"/>
  <path d="m26.285 51.457c-0.96484-0.55469-2.1602-0.55469-3.125 0l-16.238 9.375c-0.96484 0.55859-1.5625 1.5898-1.5625 2.707v18.75c0 1.1172 0.59766 2.1484 1.5625 2.707l16.238 9.375c0.96484 0.55469 2.1602 0.55469 3.125 0l16.238-9.375c0.96484-0.55859 1.5625-1.5898 1.5625-2.707v-18.75c0-1.1172-0.59766-2.1484-1.5625-2.707z"/>
  <path d="m94.793 8.332c0-1.7266-1.3984-3.125-3.125-3.125h-33.332c-1.7266 0-3.125 1.3984-3.125 3.125v33.332c0 1.7266 1.3984 3.125 3.125 3.125h33.332c1.7266 0 3.125-1.3984 3.125-3.125z"/>
 </g>
</svg>
