<?xml version="1.0" encoding="UTF-8"?>
<svg width="100pt" height="100pt" version="1.1" viewBox="0 0 100 100" xmlns="http://www.w3.org/2000/svg">
 <g>
  <path d="m79 50c0-10.359-5.5273-19.934-14.5-25.113-8.9727-5.1836-20.027-5.1836-29 0-8.9727 5.1797-14.5 14.754-14.5 25.113v4h8v-4c0-5.5703 2.2109-10.91 6.1523-14.848 3.9375-3.9414 9.2773-6.1523 14.848-6.1523s10.91 2.2109 14.848 6.1523c3.9414 3.9375 6.1523 9.2773 6.1523 14.848s-2.2109 10.91-6.1523 14.848c-3.9375 3.9414-9.2773 6.1523-14.848 6.1523h-4v8h4c7.6914 0 15.066-3.0547 20.508-8.4922 5.4375-5.4414 8.4922-12.816 8.4922-20.508z"/>
  <path d="m27 78.66 25-25v10.34h8v-19c0-1.3242-0.52734-2.5977-1.4648-3.5352s-2.2109-1.4648-3.5352-1.4648h-19v8h10.34l-25 25z"/>
 </g>
</svg>
