<?xml version="1.0" encoding="UTF-8"?>
<svg width="100pt" height="100pt" version="1.1" viewBox="0 0 100 100" xmlns="http://www.w3.org/2000/svg">
 <g>
  <path d="m50 43.75c-0.44141 0-0.88281-0.09375-1.293-0.28125l-34.375-15.625c-1.1172-0.50781-1.832-1.6172-1.832-2.8438s0.71484-2.3359 1.832-2.8438l34.375-15.625c0.82031-0.375 1.7656-0.375 2.5859 0l34.375 15.625c1.1172 0.50781 1.832 1.6172 1.832 2.8438s-0.71484 2.3359-1.832 2.8438l-34.375 15.625c-0.41016 0.1875-0.85156 0.28125-1.293 0.28125zm-26.824-18.75 26.824 12.191 26.824-12.191-26.824-12.191z"/>
  <path d="m43.75 93.75c-0.4375 0-0.87891-0.09375-1.293-0.28125l-34.375-15.625c-1.1172-0.50781-1.832-1.6172-1.832-2.8438v-37.5c0-1.0625 0.53906-2.0508 1.4336-2.6289 0.89453-0.57422 2.0234-0.65625 2.9844-0.21484l34.375 15.625c1.1172 0.50781 1.832 1.6172 1.832 2.8438v37.5c0 1.0625-0.53906 2.0508-1.4336 2.6289-0.51172 0.32812-1.1016 0.49609-1.6914 0.49609zm-31.25-20.762 28.125 12.785v-30.637l-28.125-12.785z"/>
  <path d="m56.25 93.75c-0.58984 0-1.1797-0.16797-1.6914-0.49609-0.89453-0.57812-1.4336-1.5664-1.4336-2.6289v-37.5c0-1.2266 0.71484-2.3359 1.832-2.8438l34.375-15.625c0.96484-0.4375 2.0898-0.35938 2.9844 0.21484 0.89453 0.57812 1.4336 1.5664 1.4336 2.6289v37.5c0 1.2266-0.71484 2.3359-1.832 2.8438l-34.375 15.625c-0.41406 0.1875-0.85547 0.28125-1.293 0.28125zm3.125-38.613v30.633l28.125-12.785v-30.633z"/>
 </g>
</svg>
