<?xml version="1.0" encoding="UTF-8"?>
<svg width="100pt" height="100pt" version="1.1" viewBox="0 0 100 100" xmlns="http://www.w3.org/2000/svg">
 <g>
  <path d="m74 73h-48c-2.2109 0-4 1.7891-4 4s1.7891 4 4 4h48c2.2109 0 4-1.7891 4-4s-1.7891-4-4-4"/>
  <path d="m74 58c-1.3828 0.039062-2.7266-0.4375-3.7812-1.3281-4.9023-3.5586-11.535-3.5586-16.438 0-2.2031 1.7852-5.3594 1.7852-7.5625 0-4.9023-3.5586-11.535-3.5586-16.438 0-1.0547 0.89062-2.4023 1.3672-3.7812 1.3281-2.2109 0-4 1.7891-4 4s1.7891 4 4 4c2.9609 0.042969 5.8516-0.89844 8.2188-2.6719 2.2109-1.7656 5.3516-1.7656 7.5625 0 4.9023 3.5586 11.535 3.5586 16.438 0 2.2031-1.7852 5.3594-1.7852 7.5625 0 2.3672 1.7773 5.2578 2.7148 8.2188 2.6719 2.2109 0 4-1.7891 4-4s-1.7891-4-4-4"/>
  <path d="m62.859 21c-4.1758-1.25-8.5-1.9219-12.859-2-4.3594 0.074219-8.6914 0.75-12.871 2-10.25 3.1602-16.129 10.09-16.129 19 0 2.1211 0.84375 4.1562 2.3438 5.6562s3.5352 2.3438 5.6562 2.3438h42c2.1211 0 4.1562-0.84375 5.6562-2.3438s2.3438-3.5352 2.3438-5.6562c0-8.9102-5.8789-15.84-16.141-19m-12.859 19h-21c0-13 21-13 21-13s21 0 21 13z"/>
 </g>
</svg>
