<?xml version="1.0" encoding="UTF-8"?>
<svg width="100pt" height="100pt" version="1.1" viewBox="0 0 100 100" xmlns="http://www.w3.org/2000/svg">
 <path d="m97.57 13.488c0-6.2344-5.0508-11.285-11.281-11.285h-72.547c-6.2344 0-11.285 5.0508-11.285 11.285v72.543c0 6.2344 5.0508 11.285 11.285 11.285h72.547c6.2305 0 11.281-5.0508 11.281-11.285zm-79.238 76.277 48.012-48.012 23.68 23.68v20.594c0 2.0625-1.6719 3.7344-3.7305 3.7344h-67.961zm71.691-35.004v-41.273c0-2.0625-1.6719-3.7344-3.7305-3.7344h-72.547c-2.0625 0-3.7344 1.6719-3.7344 3.7344v72.543c0 0.41406 0.066406 0.81641 0.19141 1.1875l53.469-53.469c1.4727-1.4727 3.8633-1.4727 5.3359 0l21.012 21.012zm-62.266-36.125c3.9531 0 7.1641 3.207 7.1641 7.1602s-3.2109 7.1602-7.1641 7.1602c-3.9531 0-7.1602-3.207-7.1602-7.1602s3.207-7.1602 7.1602-7.1602z" fill-rule="evenodd"/>
</svg>
