<svg xmlns="http://www.w3.org/2000/svg" xmlns:xlink="http://www.w3.org/1999/xlink" version="1.1" x="0px" y="0px" viewBox="0 0 1024 1024" style="enable-background:new 0 0 1024 1024;" xml:space="preserve"><path d="M751.3,458.9c-2.6-2.6-5.3-5.3-7.9-7.9c-2.1-2.1-4.2-4.2-6.2-6.2c-38.5-38.5-77-77-115.5-115.5  c-14.1-14.1-28.3-28.2-42.4-42.4c-4.8-4.8-9.6-9.6-14.3-14.4c-4.7-4.7-9.4-9.4-14.1-14.1c-17.4,17.4-34.9,34.9-52.3,52.3  c-25.2,25.2-50.4,50.4-75.6,75.6c-28.8,28.8-57.5,57.5-86.2,86.2c-28.7,28.7-57.4,57.4-86.1,86.1l-74.8,74.8  c-17.5,17.5-35,35-52.5,52.5c-4.8,4.8-9.6,9.6-14.4,14.4c-5.5,5.5-10.3,9.9-10.6,18.9c-1,26,0,52.2,0.1,78.2  c0,34,0.1,67.9,0.1,101.9c0,2,0,4.1,0,6.1c0,10.8,9.1,20,20,20c25.9,0,51.8,0,77.7,0.1c34.1,0,68.1,0.1,102.2,0.1c3.1,0,6,0.1,9-0.3  c5-0.7,9.1-3.2,12.6-6.6c3.3-3.3,6.6-6.6,9.9-9.9c15.2-15.2,30.3-30.3,45.5-45.5c23.5-23.5,47-47,70.5-70.5  c28.1-28.1,56.2-56.2,84.4-84.4c29.1-29.1,58.1-58.1,87.2-87.2c26.3-26.3,52.7-52.7,79-79c19.9-19.9,39.8-39.8,59.7-59.7  c3.1-3.1,6.3-6.3,9.5-9.4C760.8,468.4,756.1,463.7,751.3,458.9z"></path><path d="M908.3,248.5c-7.8-7.8-15.6-15.6-23.5-23.5c-27.6-27.6-55.1-55.1-82.7-82.7c-8.5-8.5-17.1-17-25.6-25.6  c-5.1-5.1-10.8-9.7-17.4-12.7c-17.6-8-39.5-7.8-55.8,3.5c-8.9,6.2-16.3,14.6-24,22.2c-12.9,12.9-25.8,25.8-38.7,38.7  c-15.8,15.8-31.7,31.5-47.5,47.3l186.6,186.6c4.7,4.7,9.4,9.4,14.1,14.1l14.1,14.1c6.7-6.7,13.5-13.5,20.2-20.2  c21.9-21.9,43.8-43.8,65.7-65.7c4.9-4.9,9.7-9.7,14.6-14.6c0.2-0.2,0.5-0.5,0.7-0.7c0.3-0.3,0.5-0.5,0.8-0.8  C931.2,305.7,930.4,270.7,908.3,248.5z"></path></svg>