<svg xmlns="http://www.w3.org/2000/svg" xmlns:xlink="http://www.w3.org/1999/xlink" viewBox="0 0 100 100" style="background-color:#ffffff00;" version="1.1" xml:space="preserve" x="0px" y="0px"><g><path d="M 23.4149 24.9522 L 23.068 24.7139 L 22.6178 25.3641 L 22.6178 16.5286 C 22.6178 14.7718 21.1903 13.3476 19.4293 13.3476 L 14.9656 13.3476 C 13.2046 13.3476 11.7772 14.7718 11.7772 16.5286 L 11.7772 42.6135 C 11.7772 44.3704 13.2046 45.7946 14.9656 45.7946 L 41.1105 45.7946 C 42.8714 45.7946 44.2989 44.3704 44.2989 42.6135 L 44.2989 38.16 C 44.2989 36.4031 42.8714 34.9789 41.1105 34.9789 L 31.4879 34.9789 C 33.8653 32.235 37.0702 29.6495 39.6359 28.3384 C 40.9112 27.7022 42.1866 27.066 43.3822 26.6683 C 44.5779 26.1912 45.8533 25.8731 47.1286 25.6345 C 48.7228 25.3164 50.7953 25.1573 52.4692 25.1573 C 67.2953 25.1573 79.7301 37.4045 79.7301 52.4351 C 79.7301 52.6737 79.5707 55.0595 79.4112 56.3319 C 78.6938 60.9445 76.7808 65.9547 72.7156 70.7263 C 69.7663 74.146 63.8678 78.1223 58.4475 79.1562 C 54.7808 79.8719 52.9475 82.7349 52.9475 85.5183 C 52.9475 88.8585 55.4982 91.8805 59.2446 91.8805 C 60.6793 91.8805 63.2301 91.0852 64.5054 90.6876 C 70.3243 88.8585 76.2228 85.7569 81.8822 79.6333 C 86.8243 74.2255 89.4547 68.6586 90.9692 63.1712 C 91.6866 60.6264 92.0851 57.6839 92.404 55.139 L 92.404 49.8902 C 92.404 47.1068 90.9692 41.3013 90.1721 39.2336 C 83.0779 19.9881 66.4185 12.433 52.4692 12.433 C 49.8388 12.433 47.1286 12.5921 44.6576 13.1488 C 42.7446 13.5464 40.8315 14.1031 38.9185 14.7393 C 33.8223 16.5456 28.2747 19.8701 23.4149 24.9522 Z" fill="#000000"></path></g></svg>